<svg width="13" height="13" viewBox="0 0 13 13" fill="none" xmlns="http://www.w3.org/2000/svg">
<g id="stash:article-solid">
<path id="Vector" d="M5.14575 3.52079C5.14575 3.37713 5.20282 3.23936 5.3044 3.13778C5.40598 3.03619 5.54376 2.97913 5.68742 2.97913H8.93742C9.08108 2.97913 9.21885 3.03619 9.32044 3.13778C9.42202 3.23936 9.47909 3.37713 9.47909 3.52079C9.47909 3.66445 9.42202 3.80223 9.32044 3.90381C9.21885 4.00539 9.08108 4.06246 8.93742 4.06246H5.68742C5.54376 4.06246 5.40598 4.00539 5.3044 3.90381C5.20282 3.80223 5.14575 3.66445 5.14575 3.52079ZM5.14575 5.14579C5.14575 5.03805 5.18855 4.93472 5.26474 4.85853C5.34093 4.78234 5.44426 4.73954 5.552 4.73954H6.22909C6.33683 4.73954 6.44016 4.78234 6.51635 4.85853C6.59253 4.93472 6.63534 5.03805 6.63534 5.14579C6.63534 5.25354 6.59253 5.35687 6.51635 5.43305C6.44016 5.50924 6.33683 5.55204 6.22909 5.55204H5.552C5.44426 5.55204 5.34093 5.50924 5.26474 5.43305C5.18855 5.35687 5.14575 5.25354 5.14575 5.14579ZM5.14575 6.36454C5.14575 6.2568 5.18855 6.15347 5.26474 6.07728C5.34093 6.00109 5.44426 5.95829 5.552 5.95829H6.22909C6.33683 5.95829 6.44016 6.00109 6.51635 6.07728C6.59253 6.15347 6.63534 6.2568 6.63534 6.36454C6.63534 6.47229 6.59253 6.57562 6.51635 6.6518C6.44016 6.72799 6.33683 6.77079 6.22909 6.77079H5.552C5.44426 6.77079 5.34093 6.72799 5.26474 6.6518C5.18855 6.57562 5.14575 6.47229 5.14575 6.36454ZM5.14575 7.85413C5.14575 7.74638 5.18855 7.64305 5.26474 7.56686C5.34093 7.49068 5.44426 7.44788 5.552 7.44788H9.07284C9.18058 7.44788 9.28391 7.49068 9.3601 7.56686C9.43628 7.64305 9.47909 7.74638 9.47909 7.85413C9.47909 7.96187 9.43628 8.0652 9.3601 8.14139C9.28391 8.21757 9.18058 8.26038 9.07284 8.26038H5.552C5.44426 8.26038 5.34093 8.21757 5.26474 8.14139C5.18855 8.0652 5.14575 7.96187 5.14575 7.85413ZM7.65746 4.60413C7.62604 4.60413 7.58217 4.60413 7.54263 4.60738C7.47118 4.61222 7.40141 4.63118 7.33734 4.66317C7.23542 4.7151 7.15256 4.79796 7.10063 4.89988C7.05946 4.98113 7.04863 5.05696 7.04484 5.10517C7.04159 5.14471 7.04159 5.18858 7.04159 5.22V6.15492C7.04159 6.18633 7.04159 6.23021 7.04484 6.26975C7.04863 6.31742 7.05946 6.39379 7.10063 6.47504C7.15256 6.57696 7.23542 6.65982 7.33734 6.71175C7.41859 6.75292 7.49442 6.76375 7.54263 6.76754C7.58217 6.77079 7.62604 6.77079 7.65746 6.77079H8.86321C8.89463 6.77079 8.9385 6.77079 8.97804 6.76754C9.02571 6.76375 9.10209 6.75292 9.18334 6.71175C9.28525 6.65982 9.36811 6.57696 9.42004 6.47504C9.45203 6.41097 9.47099 6.3412 9.47584 6.26975C9.47908 6.23021 9.47909 6.18633 9.47909 6.15492V5.22C9.47909 5.18858 9.47908 5.14471 9.47584 5.10517C9.47099 5.03372 9.45203 4.96395 9.42004 4.89988C9.36811 4.79796 9.28525 4.7151 9.18334 4.66317C9.11927 4.63118 9.04949 4.61222 8.97804 4.60738C8.9385 4.60413 8.89463 4.60413 8.86321 4.60413H7.65746Z" fill="black"/>
<path id="Vector_2" d="M5.552 7.54749H9.07251C9.15366 7.54749 9.23189 7.58 9.28931 7.63733C9.34674 7.69476 9.37915 7.7729 9.37915 7.85413C9.37915 7.93535 9.34674 8.01349 9.28931 8.07092C9.23189 8.12825 9.15366 8.16077 9.07251 8.16077H5.552C5.47078 8.16077 5.39264 8.12836 5.33521 8.07092C5.27777 8.01349 5.24536 7.93535 5.24536 7.85413C5.24536 7.7729 5.27777 7.69476 5.33521 7.63733C5.39264 7.5799 5.47078 7.54749 5.552 7.54749ZM5.552 6.05823H6.22876C6.30998 6.05823 6.38812 6.09064 6.44556 6.14807C6.50299 6.2055 6.5354 6.28365 6.5354 6.36487C6.53531 6.4459 6.50281 6.52335 6.44556 6.58069C6.38812 6.63812 6.30998 6.67053 6.22876 6.67053H5.552C5.47078 6.67053 5.39264 6.63812 5.33521 6.58069C5.27805 6.52336 5.24545 6.44582 5.24536 6.36487L5.25122 6.30432C5.26299 6.24557 5.29224 6.1911 5.33521 6.14807C5.39264 6.09064 5.47078 6.05823 5.552 6.05823ZM7.65747 4.70374H8.86353L8.96997 4.70667H8.97095C9.02883 4.71059 9.08597 4.72581 9.13794 4.75159V4.75256C9.22056 4.79469 9.28796 4.8615 9.33032 4.94397V4.94495C9.34331 4.971 9.35397 4.99804 9.36157 5.026L9.37622 5.11194V5.11292C9.37908 5.14769 9.37915 5.18823 9.37915 5.22034V6.15491L9.37622 6.26135V6.26331C9.37224 6.32146 9.35636 6.37815 9.33032 6.4303C9.2986 6.49226 9.25328 6.54596 9.19751 6.58655L9.13794 6.62268C9.10554 6.63907 9.0738 6.6491 9.04517 6.65588L8.96997 6.6676C8.93531 6.67045 8.89558 6.67053 8.86353 6.67053H7.65747L7.55103 6.6676H7.55005C7.50873 6.66432 7.447 6.65557 7.38208 6.62268H7.38306C7.32069 6.5909 7.2666 6.54499 7.22583 6.48889L7.1897 6.42932C7.17332 6.3969 7.16326 6.36519 7.15649 6.33655L7.14478 6.26135C7.14193 6.22663 7.14185 6.18696 7.14185 6.15491V5.22034L7.14478 5.11292C7.14641 5.09219 7.14966 5.06648 7.15649 5.03772L7.1897 4.94495C7.23205 4.86196 7.30004 4.79486 7.38306 4.75256L7.38208 4.75159C7.4341 4.7257 7.4911 4.71063 7.54907 4.70667V4.70764L7.55103 4.70667C7.58574 4.70383 7.62544 4.70374 7.65747 4.70374ZM5.552 4.83948H6.22876C6.30998 4.83948 6.38812 4.87189 6.44556 4.92932C6.50299 4.98675 6.5354 5.0649 6.5354 5.14612C6.53531 5.22715 6.50281 5.3046 6.44556 5.36194C6.38812 5.41937 6.30998 5.45178 6.22876 5.45178H5.552C5.47078 5.45178 5.39264 5.41937 5.33521 5.36194C5.27805 5.30461 5.24545 5.22707 5.24536 5.14612C5.24536 5.06497 5.27787 4.98674 5.33521 4.92932C5.39264 4.87189 5.47078 4.83948 5.552 4.83948ZM5.68774 3.07874H8.93774C9.02553 3.0788 9.1109 3.10494 9.18286 3.15295L9.24927 3.20862C9.3321 3.29145 9.37915 3.40398 9.37915 3.52112C9.37909 3.60896 9.35301 3.69424 9.30493 3.76624L9.24927 3.83264C9.16652 3.91539 9.05476 3.96244 8.93774 3.96252H5.68774C5.59997 3.96252 5.51462 3.93625 5.44263 3.88831L5.37524 3.83264C5.29259 3.74991 5.24545 3.63806 5.24536 3.52112C5.24536 3.4334 5.2717 3.34796 5.31958 3.276L5.37524 3.20862C5.43737 3.14649 5.51593 3.10449 5.60083 3.08752L5.68774 3.07874Z" fill="black" stroke="white" stroke-width="0.2"/>
<path id="Vector_3" d="M5.7793 1.58923H8.8457C8.99135 1.58923 9.12342 1.58918 9.24316 1.59119L9.56641 1.60583C9.7653 1.62154 9.94376 1.65598 10.1104 1.7406V1.74158C10.339 1.8584 10.5308 2.03545 10.6641 2.2533L10.7168 2.349C10.7803 2.47354 10.8164 2.60463 10.8369 2.74646L10.8525 2.89197V2.89294C10.8683 3.08554 10.8691 3.32171 10.8691 3.61267V9.38806C10.8691 9.53335 10.8692 9.66507 10.8672 9.78455L10.8525 10.1078C10.8407 10.2573 10.818 10.3949 10.7715 10.5248L10.7168 10.6517C10.6003 10.8803 10.4235 11.072 10.2061 11.2054L10.1104 11.2592C9.95029 11.3406 9.77879 11.3781 9.5791 11.3959L9.56934 11.3969L9.56055 11.3998L9.47949 11.4105L7.49219 11.4144C6.16676 11.4188 4.84126 11.4224 3.5166 11.4105H3.51758C3.49246 11.4099 3.46738 11.4082 3.44238 11.4056H3.44336C3.26724 11.384 3.09719 11.3287 2.94336 11.2426L2.79492 11.1459C2.43128 10.8735 2.13086 10.366 2.13086 9.47888C2.13092 9.418 2.14929 9.35886 2.18262 9.30896L2.2207 9.26306C2.27814 9.20563 2.35628 9.17322 2.4375 9.17322H3.75586V3.61267C3.75586 3.46731 3.75582 3.3356 3.75781 3.21619L3.77246 2.89294V2.89197C3.78426 2.74273 3.80718 2.60541 3.85352 2.47595L3.9082 2.349C4.0248 2.12013 4.20216 1.92882 4.41992 1.79529L4.51562 1.74158C4.64017 1.67803 4.77125 1.64194 4.91309 1.62146L5.05859 1.60583H5.05957C5.25216 1.59003 5.48834 1.58923 5.7793 1.58923ZM5.39844 2.20447L5.10938 2.21619C4.98835 2.22589 4.90776 2.24157 4.84766 2.26306L4.79297 2.2865C4.68338 2.34232 4.58929 2.42335 4.51758 2.52185L4.45312 2.62634C4.4198 2.69155 4.39579 2.78056 4.38281 2.94177C4.36883 3.10734 4.36914 3.32136 4.36914 3.62927V9.17322H8.39648C8.47767 9.17325 8.55587 9.20565 8.61328 9.26306C8.6704 9.32038 8.70206 9.39796 8.70215 9.47888C8.70215 10.1249 8.8875 10.4403 9.05273 10.598L9.12207 10.6556V10.6566C9.16121 10.6859 9.20322 10.7108 9.24707 10.7318L9.38379 10.7816L9.38867 10.7826L9.41699 10.7885L9.42969 10.7914L9.44238 10.7904C9.58765 10.7837 9.6801 10.7711 9.75781 10.7445L9.83105 10.7133H9.83203C9.94164 10.6574 10.0357 10.5765 10.1074 10.4779L10.1719 10.3734C10.1886 10.3407 10.203 10.3021 10.2148 10.2513L10.2422 10.057C10.2561 9.89203 10.2559 9.67809 10.2559 9.37048V3.62927C10.2559 3.47478 10.2557 3.34429 10.2539 3.23181L10.2422 2.94275C10.2325 2.82173 10.2168 2.74114 10.1953 2.68103L10.1719 2.62634C10.116 2.51657 10.0351 2.42262 9.93652 2.35095L9.83203 2.2865C9.79937 2.26981 9.76063 2.25543 9.70996 2.24353L9.51562 2.21619C9.3506 2.20221 9.13691 2.20251 8.8291 2.20251H5.7959C5.64141 2.20251 5.51092 2.20267 5.39844 2.20447Z" fill="black" stroke="white" stroke-width="0.2"/>
<path id="Vector_4" d="M8.84542 1.48962H5.77958C5.48979 1.48962 5.24875 1.48962 5.05104 1.50587C4.84521 1.52212 4.65237 1.55896 4.46983 1.65212C4.18949 1.79495 3.96157 2.02287 3.81875 2.30321C3.72558 2.48575 3.68875 2.67858 3.6725 2.88442C3.65625 3.08212 3.65625 3.32317 3.65625 3.61296V9.07296H2.4375C2.32976 9.07296 2.22642 9.11576 2.15024 9.19195C2.07405 9.26813 2.03125 9.37146 2.03125 9.47921C2.03125 10.3908 2.34108 10.9309 2.73542 11.2261C2.93909 11.3779 3.17879 11.474 3.43092 11.505C3.459 11.5079 3.48719 11.5098 3.51542 11.5105C4.84087 11.5224 6.16687 11.5186 7.49233 11.5142C8.15461 11.5121 8.81689 11.5108 9.47917 11.5105C9.51708 11.5105 9.55319 11.5056 9.5875 11.4958C9.79496 11.4774 9.98021 11.4373 10.1557 11.348C10.4358 11.2052 10.6635 10.9775 10.8063 10.6974C10.8994 10.5143 10.9362 10.3215 10.9525 10.1157C10.9688 9.91796 10.9688 9.67692 10.9688 9.38767V3.61296C10.9688 3.32317 10.9688 3.08212 10.9525 2.88442C10.9362 2.67858 10.8994 2.48575 10.8063 2.30321C10.6637 2.02303 10.4362 1.79513 10.1562 1.65212C9.97317 1.55896 9.78033 1.52212 9.5745 1.50587C9.37679 1.48962 9.13521 1.48962 8.84542 1.48962ZM9.43746 10.6909L9.40875 10.685C9.32673 10.6638 9.24963 10.6268 9.18179 10.5761C9.03446 10.4656 8.80263 10.1926 8.80263 9.47921C8.80263 9.37146 8.75982 9.26813 8.68364 9.19195C8.60745 9.11576 8.50412 9.07296 8.39638 9.07296H4.46875V3.62921C4.46875 3.31937 4.46875 3.11083 4.48229 2.9505C4.49475 2.79504 4.5175 2.72083 4.54242 2.67208C4.60737 2.54447 4.7111 2.44074 4.83871 2.37579C4.88746 2.35087 4.96167 2.32812 5.11712 2.31567C5.27746 2.30267 5.48546 2.30212 5.79583 2.30212H8.82917C9.139 2.30212 9.34754 2.30212 9.50733 2.31567C9.66333 2.32812 9.73754 2.35087 9.78629 2.37579C9.91412 2.44079 10.0176 2.54425 10.0826 2.67208C10.1075 2.72083 10.1303 2.79504 10.1427 2.9505C10.1557 3.11083 10.1562 3.31883 10.1562 3.62921V9.37087C10.1562 9.68071 10.1563 9.88925 10.1427 10.049C10.1303 10.205 10.1075 10.2792 10.0826 10.328C10.0176 10.4556 9.9139 10.5593 9.78629 10.6243C9.70937 10.6633 9.6265 10.6822 9.43746 10.6909Z" fill="black"/>
</g>
</svg>
