<svg width="15" height="15" viewBox="0 0 15 15" fill="none" xmlns="http://www.w3.org/2000/svg">
<path d="M7.49963 12.5662L3.86408 14.8593C3.70347 14.9664 3.53557 15.0122 3.36036 14.9969C3.18515 14.9816 3.03185 14.9205 2.90044 14.8135C2.76904 14.7065 2.66683 14.5729 2.59383 14.4126C2.52083 14.2524 2.50623 14.0727 2.55003 13.8733L3.51367 9.53933L0.294239 6.62708C0.148233 6.4895 0.0571255 6.33265 0.020916 6.15654C-0.0152934 5.98043 -0.00448903 5.8086 0.0533293 5.64105C0.111148 5.4735 0.198751 5.33591 0.31614 5.22829C0.433528 5.12066 0.594135 5.05187 0.797959 5.02191L5.04673 4.63208L6.68929 0.550346C6.7623 0.366898 6.8756 0.229311 7.0292 0.137586C7.18279 0.045862 7.3396 0 7.49963 0C7.65965 0 7.81646 0.045862 7.97006 0.137586C8.12366 0.229311 8.23696 0.366898 8.30996 0.550346L9.95253 4.63208L14.2013 5.02191C14.4057 5.05248 14.5663 5.12128 14.6831 5.22829C14.7999 5.3353 14.8875 5.47289 14.9459 5.64105C15.0043 5.80921 15.0154 5.98135 14.9792 6.15746C14.943 6.33357 14.8516 6.49011 14.705 6.62708L11.4856 9.53933L12.4492 13.8733C12.493 14.072 12.4784 14.2518 12.4054 14.4126C12.3324 14.5735 12.2302 14.7071 12.0988 14.8135C11.9674 14.9199 11.8141 14.981 11.6389 14.9969C11.4637 15.0128 11.2958 14.967 11.1352 14.8593L7.49963 12.5662Z" fill="#E4D531"/>
</svg>
