<svg width="13" height="13" viewBox="0 0 13 13" fill="none" xmlns="http://www.w3.org/2000/svg">
<path fill-rule="evenodd" clip-rule="evenodd" d="M8.8138 5.56401C8.8138 6.13864 8.58553 6.68974 8.1792 7.09607C7.77287 7.5024 7.22177 7.73067 6.64714 7.73067C6.0725 7.73067 5.5214 7.5024 5.11507 7.09607C4.70874 6.68974 4.48047 6.13864 4.48047 5.56401C4.48047 4.98937 4.70874 4.43827 5.11507 4.03194C5.5214 3.62561 6.0725 3.39734 6.64714 3.39734C7.22177 3.39734 7.77287 3.62561 8.1792 4.03194C8.58553 4.43827 8.8138 4.98937 8.8138 5.56401ZM7.73047 5.56401C7.73047 5.85132 7.61633 6.12687 7.41317 6.33004C7.21 6.5332 6.93445 6.64734 6.64714 6.64734C6.35982 6.64734 6.08427 6.5332 5.8811 6.33004C5.67794 6.12687 5.5638 5.85132 5.5638 5.56401C5.5638 5.27669 5.67794 5.00114 5.8811 4.79797C6.08427 4.59481 6.35982 4.48067 6.64714 4.48067C6.93445 4.48067 7.21 4.59481 7.41317 4.79797C7.61633 5.00114 7.73047 5.27669 7.73047 5.56401Z" fill="white"/>
<path fill-rule="evenodd" clip-rule="evenodd" d="M3.13842 8.94726C2.44012 8.2824 1.95466 7.4254 1.74343 6.48464C1.5322 5.54388 1.60468 4.5616 1.9517 3.66203C2.29873 2.76246 2.90472 1.98599 3.69304 1.43083C4.48136 0.875661 5.4166 0.566727 6.3805 0.543091C7.3444 0.519456 8.29366 0.782181 9.10824 1.29804C9.92282 1.81391 10.5661 2.55974 10.9568 3.44122C11.3475 4.3227 11.4681 5.30024 11.3032 6.25023C11.1383 7.20021 10.6955 8.07998 10.0306 8.77826L6.669 12.3088L3.13842 8.94726ZM9.24625 8.0313L6.63163 10.7776L3.88538 8.16293C3.34228 7.64581 2.96473 6.97927 2.80044 6.24758C2.63616 5.51589 2.69254 4.75192 2.96244 4.05227C3.23234 3.35262 3.70365 2.74871 4.31676 2.31692C4.92988 1.88512 5.65726 1.64483 6.40694 1.62642C7.15662 1.60801 7.89492 1.81232 8.52849 2.21351C9.16206 2.61469 9.66243 3.19474 9.96634 3.8803C10.2703 4.56587 10.3641 5.32615 10.2359 6.06502C10.1077 6.80389 9.76331 7.48816 9.24625 8.0313Z" fill="white"/>
</svg>
