<svg width="13" height="13" viewBox="0 0 13 13" fill="none" xmlns="http://www.w3.org/2000/svg">
<g id="gg:pin">
<g id="Group">
<path id="Vector" d="M6.64771 3.49695C7.12729 3.49702 7.58957 3.66432 7.95728 3.9657L8.10864 4.10242C8.49622 4.48999 8.71411 5.01622 8.71411 5.56433C8.71404 6.04378 8.54755 6.50624 8.24634 6.8739L8.10864 7.02527C7.72114 7.41277 7.1957 7.63065 6.64771 7.63074C6.16806 7.63074 5.70493 7.46435 5.33716 7.16296L5.18579 7.02527C4.79839 6.63779 4.58041 6.11225 4.58032 5.56433C4.58032 5.08454 4.74753 4.62161 5.04907 4.25378L5.18579 4.10242C5.57337 3.71484 6.09959 3.49695 6.64771 3.49695ZM6.64771 4.38074C6.37324 4.38074 6.10822 4.47596 5.89771 4.64832L5.81079 4.72742C5.58887 4.94934 5.46411 5.25049 5.46411 5.56433C5.46419 5.83885 5.5592 6.10384 5.73169 6.31433L5.81079 6.40027C6.03271 6.62219 6.33387 6.74695 6.64771 6.74695C6.96143 6.74686 7.2618 6.62211 7.48364 6.40027C7.70548 6.17843 7.83024 5.87805 7.83032 5.56433C7.83032 5.2898 7.73519 5.02487 7.56274 4.81433L7.48364 4.72742C7.26182 4.50568 6.96135 4.38082 6.64771 4.38074Z" fill="#434343" stroke="white" stroke-width="0.2"/>
<path id="Vector_2" d="M6.38281 0.643188C7.20904 0.622929 8.02453 0.817162 8.75 1.20471L9.05469 1.38245C9.75296 1.82465 10.323 2.43934 10.7109 3.16467L10.8652 3.48206C11.2478 4.34535 11.3665 5.30265 11.2051 6.23303C11.0638 7.04722 10.7139 7.80909 10.1924 8.44495L9.95801 8.70959L6.66504 12.1666L3.20703 8.87463C2.60869 8.30485 2.1696 7.59109 1.93066 6.80432L1.84082 6.46252C1.65984 5.65631 1.69124 4.81882 1.92969 4.03186L2.04492 3.69788C2.34238 2.92685 2.83411 2.24811 3.46973 1.7262L3.75098 1.51233C4.42648 1.0367 5.21209 0.745543 6.03027 0.664673L6.38281 0.643188ZM6.4043 1.526C5.73104 1.54256 5.07497 1.73337 4.5 2.07776L4.25879 2.23499C3.70827 2.62274 3.26917 3.14591 2.98242 3.75159L2.86914 4.01624C2.62669 4.64471 2.5522 5.32379 2.65039 5.98694L2.70312 6.26917C2.85063 6.92614 3.16548 7.53221 3.61523 8.02893L3.81641 8.23499L6.5625 10.8502L6.63477 10.9186L6.7041 10.8463L9.31836 8.10022C9.78266 7.6125 10.1113 7.01388 10.2744 6.36389L10.334 6.08167C10.449 5.41827 10.3906 4.73801 10.165 4.10706L10.0576 3.83948C9.78466 3.22388 9.3575 2.69099 8.81934 2.29163L8.58203 2.12854C7.9318 1.71685 7.17367 1.50711 6.4043 1.526Z" fill="#434343" stroke="white" stroke-width="0.2"/>
</g>
</g>
</svg>
