<svg width="12" height="13" viewBox="0 0 12 13" fill="none" xmlns="http://www.w3.org/2000/svg">
<g id="famicons:trail-sign-outline" clip-path="url(#clip0_3_130)">
<path id="Vector" d="M6 9.875V11.375M6 5.375V6.875M6 1.625V2.375M9.75 5.375H2.40539C2.35611 5.37501 2.30732 5.3653 2.26179 5.34644C2.21627 5.32758 2.17491 5.29993 2.14008 5.26508L0.75 3.875L2.14008 2.48492C2.17491 2.45007 2.21627 2.42242 2.26179 2.40356C2.30732 2.3847 2.35611 2.37499 2.40539 2.375H9.75C9.84946 2.375 9.94484 2.41451 10.0152 2.48484C10.0855 2.55516 10.125 2.65054 10.125 2.75V5C10.125 5.09946 10.0855 5.19484 10.0152 5.26516C9.94484 5.33549 9.84946 5.375 9.75 5.375ZM2.25 9.875H9.59461C9.64389 9.87501 9.69268 9.8653 9.7382 9.84644C9.78373 9.82758 9.82509 9.79993 9.85992 9.76508L11.25 8.375L9.85992 6.98492C9.82509 6.95007 9.78373 6.92242 9.7382 6.90356C9.69268 6.8847 9.64389 6.87499 9.59461 6.875H2.25C2.15054 6.875 2.05516 6.91451 1.98484 6.98483C1.91451 7.05516 1.875 7.15054 1.875 7.25V9.5C1.875 9.59946 1.91451 9.69484 1.98484 9.76517C2.05516 9.83549 2.15054 9.875 2.25 9.875Z" stroke="black" stroke-width="0.4" stroke-linecap="round" stroke-linejoin="round"/>
<path id="Vector_2" d="M6.5 10.6562V12.2812M6.5 5.78125V7.40625M6.5 1.71875V2.53125M10.5625 5.78125H2.60584C2.55246 5.78126 2.4996 5.77075 2.45028 5.75031C2.40096 5.72988 2.35615 5.69993 2.31842 5.66217L0.8125 4.15625L2.31842 2.65033C2.35615 2.61257 2.40096 2.58262 2.45028 2.56219C2.4996 2.54175 2.55246 2.53124 2.60584 2.53125H10.5625C10.6702 2.53125 10.7736 2.57405 10.8498 2.65024C10.9259 2.72642 10.9688 2.82976 10.9688 2.9375V5.375C10.9688 5.48274 10.9259 5.58608 10.8498 5.66226C10.7736 5.73845 10.6702 5.78125 10.5625 5.78125ZM2.4375 10.6562H10.3942C10.4475 10.6563 10.5004 10.6457 10.5497 10.6253C10.599 10.6049 10.6438 10.5749 10.6816 10.5372L12.1875 9.03125L10.6816 7.52533C10.6438 7.48757 10.599 7.45762 10.5497 7.43719C10.5004 7.41675 10.4475 7.40624 10.3942 7.40625H2.4375C2.32976 7.40625 2.22642 7.44905 2.15024 7.52524C2.07405 7.60142 2.03125 7.70476 2.03125 7.8125V10.25C2.03125 10.3577 2.07405 10.4611 2.15024 10.5373C2.22642 10.6134 2.32976 10.6562 2.4375 10.6562Z" stroke="black" stroke-width="0.8125" stroke-linecap="round" stroke-linejoin="round"/>
</g>
<defs>
<clipPath id="clip0_3_130">
<rect width="12" height="12" fill="white" transform="translate(0 0.5)"/>
</clipPath>
</defs>
</svg>
