<svg width="13" height="13" viewBox="0 0 13 13" fill="none" xmlns="http://www.w3.org/2000/svg">
<g id="lsicon:triangle-down-filled">
<path id="Vector" fill-rule="evenodd" clip-rule="evenodd" d="M2.88772 4.69056C2.92177 4.62375 2.97364 4.56766 3.0376 4.52851C3.10156 4.48936 3.17511 4.46868 3.2501 4.46875H9.7501C9.825 4.46881 9.89842 4.48959 9.96226 4.52877C10.0261 4.56795 10.0779 4.62401 10.1118 4.69077C10.1458 4.75753 10.1606 4.83237 10.1547 4.90704C10.1488 4.98171 10.1224 5.05329 10.0783 5.11388L6.82835 9.58262C6.79064 9.63433 6.74126 9.6764 6.68422 9.7054C6.62717 9.7344 6.56409 9.74952 6.5001 9.74952C6.4361 9.74952 6.37302 9.7344 6.31598 9.7054C6.25893 9.6764 6.20955 9.63433 6.17185 9.58262L2.92185 5.11388C2.87782 5.05342 2.85133 4.98198 2.84531 4.90743C2.83929 4.83288 2.85397 4.75812 2.88772 4.69138" fill="black"/>
</g>
</svg>
